<?xml version="1.0" encoding="UTF-8" standalone="no"?>
<svg
   height="256pt"
   version="1.1"
   viewBox="-5 0 256 256.50047"
   width="256pt"
   id="svg16"
   sodipodi:docname="logo.svg"
   inkscape:version="1.4.2 (ebf0e940d0, 2025-05-08)"
   xmlns:inkscape="http://www.inkscape.org/namespaces/inkscape"
   xmlns:sodipodi="http://sodipodi.sourceforge.net/DTD/sodipodi-0.dtd"
   xmlns="http://www.w3.org/2000/svg"
   xmlns:svg="http://www.w3.org/2000/svg">
  <defs
     id="defs16" />
  <sodipodi:namedview
     id="namedview16"
     pagecolor="#ffffff"
     bordercolor="#000000"
     borderopacity="0.25"
     inkscape:showpageshadow="2"
     inkscape:pageopacity="0.0"
     inkscape:pagecheckerboard="0"
     inkscape:deskcolor="#d1d1d1"
     inkscape:document-units="pt"
     inkscape:zoom="1.6922701"
     inkscape:cx="340.96213"
     inkscape:cy="340.66667"
     inkscape:window-width="3440"
     inkscape:window-height="1371"
     inkscape:window-x="0"
     inkscape:window-y="0"
     inkscape:window-maximized="1"
     inkscape:current-layer="svg16" />
  <g
     id="surface1"
     transform="matrix(0.50097778,0,0,0.50097778,-2.7560044,1.4671399e-4)">
    <path
       d="m 404.98437,205.06641 c -9.75,4.75781 -20.37109,8.73828 -31.67578,11.73046 -0.83984,0.22266 -1.67968,0.4336 -2.52343,0.64063 -24.1875,6.04687 -47.8125,6.60937 -68.16407,2.60156 -30.7539,-6.07031 -54.0039,-22.58984 -60.32422,-46.46094 -8.33984,-31.5 15.26172,-66.44531 55.54688,-87.964839 5.125,-2.730469 9.36328,-6.660156 12.44922,-11.371093 3.07812,-4.6875 5,-10.15625 5.47265,-15.933594 C 317.32031,39.210938 303.65625,22.207031 284.64844,19.6875 258.59375,16.214844 220.78125,14.460938 183.44922,24.34375 58.03125,57.546875 -16.148438,189.48828 15.347656,315.34375 48.15625,446.42578 181.76562,524.93359 311.96484,490.28516 c 106.9375,-28.44922 178.50391,-125.6836 179.4961,-231.73438 0.004,-0.84766 -0.0156,-1.79297 -0.0703,-2.82812 -2.33984,-42.67579 -47.98437,-69.41407 -86.40625,-50.65625 z M 394.71875,352.4375 c -18.70703,4.94922 -37.87109,-6.1875 -42.82031,-24.88672 -4.95313,-18.70703 6.1875,-37.87109 24.89453,-42.82422 18.69922,-4.94922 37.85937,6.19141 42.8164,24.90235 4.94922,18.69531 -6.1914,37.85546 -24.89062,42.80859 z m 0,0"
       style="fill:#e3e8e8;fill-opacity:1;fill-rule:nonzero;stroke:none"
       id="path1" />
    <path
       d="m 332.03516,405.72656 c 0,23.625 -19.15235,42.78125 -42.78125,42.78125 -23.62891,0 -42.78125,-19.15625 -42.78125,-42.78125 0,-23.6289 19.15234,-42.78515 42.78125,-42.78515 23.6289,0 42.78125,19.15625 42.78125,42.78515 z m 0,0"
       style="fill:#57c2e6;fill-opacity:1;fill-rule:nonzero;stroke:none"
       id="path2" />
    <path
       d="m 211.83594,375.95312 c 0,23.625 -19.15625,42.78125 -42.78516,42.78125 -23.62891,0 -42.78125,-19.15625 -42.78125,-42.78125 0,-23.6289 19.15234,-42.78515 42.78125,-42.78515 23.62891,0 42.78516,19.15625 42.78516,42.78515 z m 0,0"
       style="fill:#47bd8f;fill-opacity:1;fill-rule:nonzero;stroke:none"
       id="path3" />
    <path
       d="m 140.72656,271.58594 c 0,23.6289 -19.15625,42.78515 -42.781248,42.78515 -23.628906,0 -42.785156,-19.15625 -42.785156,-42.78515 0,-23.625 19.15625,-42.78125 42.785156,-42.78125 23.624998,0 42.781248,19.15625 42.781248,42.78125 z m 0,0"
       style="fill:#fa6eb0;fill-opacity:1;fill-rule:nonzero;stroke:none"
       id="path4" />
    <path
       d="m 176.44141,151.01953 c 0,23.62891 -19.15625,42.78516 -42.78516,42.78516 -23.625,0 -42.78125,-19.15625 -42.78125,-42.78516 0,-23.625 19.15625,-42.78125 42.78125,-42.78125 23.62891,0 42.78516,19.15625 42.78516,42.78125 z m 0,0"
       style="fill:#ffcf61;fill-opacity:1;fill-rule:nonzero;stroke:none"
       id="path5" />
    <path
       d="m 465.78906,202.32031 -7.19922,92.26953 -15.26953,195.78907 c -0.30469,3.95312 -2.95312,7.46875 -7.01953,9.99609 -4.05469,2.52344 -9.55469,4.05078 -15.5625,4.02344 -12.02344,-0.0508 -21.90625,-6.30469 -22.45312,-14.20703 l -13.625,-195.91016 -6.42188,-92.32813 z m 0,0"
       style="fill:#ffcf61;fill-opacity:1;fill-rule:nonzero;stroke:none"
       id="path6" />
    <path
       d="m 431.58984,502.60937 c -7.91797,-2.13281 -13.60937,-7.15234 -14.02734,-13.09765 l -14.63281,-287.45313 -24.69141,-0.10547 6.42578,92.32422 13.6211,195.91407 c 0.54687,7.90234 10.43359,14.15234 22.44921,14.20312 3.92579,0.0195 7.63672,-0.625 10.85547,-1.78516 z m 0,0"
       style="fill:#ee872e;fill-opacity:1;fill-rule:nonzero;stroke:none"
       id="path7" />
    <path
       d="m 458.58984,294.59375 7.19922,-92.27344 -62.86328,-0.25781 -24.6875,-0.10938 6.42188,92.32813 22.96875,0.0937 z m 0,0"
       style="fill:#3d4a5c;fill-opacity:1;fill-rule:nonzero;stroke:none"
       id="path8" />
    <path
       d="m 378.23828,201.95703 c -40.06641,-18.00781 -44.27344,-78.23828 -8.44141,-113.765624 35.82813,-35.527344 51.52344,-56.589844 51.625,-80.589844 0,0 129.12891,132.246098 44.36329,194.722658 z m 0,0"
       style="fill:#fa6eb0;fill-opacity:1;fill-rule:nonzero;stroke:none"
       id="path9" />
    <path
       d="m 414.48437,202.10547 -36.24609,-0.15235 C 338.17969,183.94531 333.96484,123.71875 369.79687,88.199219 405.625,52.667969 421.32422,31.597656 421.42578,7.601562 434.39062,79.054688 362.47266,121.375 414.48437,202.10547 Z m 0,0"
       style="fill:#dc1e59;fill-opacity:1;fill-rule:nonzero;stroke:none"
       id="path10" />
    <path
       d="m 407.62891,294.375 -4.70313,-92.3125 -24.6875,-0.10938 6.42188,92.32813 z m 0,0"
       style="fill:#23303f;fill-opacity:1;fill-rule:nonzero;stroke:none"
       id="path11" />
    <path
       d="m 328.52344,424.32812 c 4.04687,1.10938 8.23047,-1.27343 9.33984,-5.32031 2.33984,-8.53125 2.37109,-17.58594 0.0977,-26.17578 -3.44532,-13.01172 -11.75,-23.89844 -23.38282,-30.66406 -11.63281,-6.76172 -25.20703,-8.59375 -38.21484,-5.14844 -13.01172,3.44531 -23.90234,11.75 -30.66406,23.38281 -6.76563,11.63282 -8.59375,25.20703 -5.14844,38.21485 5.97266,22.55468 26.41016,37.49609 48.71484,37.49609 4.25391,0 8.58204,-0.54297 12.88282,-1.68359 7.49609,-1.98438 14.24609,-5.54688 20.0664,-10.58594 3.17578,-2.74609 3.51953,-7.54688 0.77344,-10.72266 -2.75,-3.17187 -7.55078,-3.51562 -10.72266,-0.76953 -4.05468,3.51172 -8.76953,5.9961 -14.0039,7.38281 -18.76563,4.96485 -38.05078,-6.2539 -43.01563,-25.0039 -2.40625,-9.08594 -1.1289,-18.5625 3.59375,-26.6875 4.72266,-8.125 12.32813,-13.92188 21.41407,-16.32813 9.08203,-2.40625 18.55859,-1.1289 26.68359,3.59375 8.125,4.72266 13.92578,12.32813 16.32812,21.41407 1.58985,6 1.57032,12.32031 -0.0625,18.26562 -1.10937,4.05078 1.27344,8.23047 5.32032,9.33984 z m 0,0"
       style="fill:#000000;fill-opacity:1;fill-rule:nonzero;stroke:none"
       id="path12" />
    <path
       d="m 143.73047,419.50781 c 7.79297,4.53516 16.45703,6.84766 25.23828,6.84766 4.32812,0 8.68359,-0.5625 12.97656,-1.69922 13.01172,-3.44141 23.90235,-11.74609 30.66406,-23.38281 6.76563,-11.63282 8.59375,-25.20703 5.14844,-38.21485 -3.44531,-13.00781 -11.75,-23.89843 -23.38281,-30.66406 -11.63281,-6.76562 -25.20703,-8.58984 -38.21484,-5.14844 -13.01172,3.44532 -23.90235,11.75 -30.66407,23.38282 -6.76562,11.63671 -8.59375,25.20703 -5.14843,38.21875 3.44531,13.00781 11.74609,23.89843 23.38281,30.66015 z m -5.09375,-61.23828 c 4.72265,-8.125 12.32812,-13.92187 21.41406,-16.32812 2.99609,-0.79297 6.03906,-1.1875 9.05859,-1.1875 6.13282,0 12.1836,1.61718 17.625,4.78125 8.125,4.72265 13.92188,12.32812 16.32813,21.41406 2.40625,9.08203 1.12891,18.5625 -3.59375,26.68359 -4.72266,8.125 -12.32813,13.92578 -21.41406,16.32813 -9.08203,2.40625 -18.5586,1.1289 -26.6836,-3.59375 -8.125,-4.72266 -13.92578,-12.32813 -16.32812,-21.41016 -2.40625,-9.08594 -1.12891,-18.5625 3.59375,-26.6875 z m 0,0"
       style="fill:#000000;fill-opacity:1;fill-rule:nonzero;stroke:none"
       id="path13" />
    <path
       d="m 141.5,296.91016 c 6.76562,-11.63282 8.59375,-25.20704 5.14844,-38.21875 -7.11328,-26.85547 -34.7461,-42.92579 -61.597659,-35.8086 -26.855469,7.10938 -42.921875,34.74219 -35.8125,61.59766 3.445313,13.01172 11.75,23.89844 23.382813,30.66406 7.792968,4.53125 16.457031,6.84766 25.238281,6.84766 4.328125,0 8.683595,-0.5625 12.976565,-1.69922 13.01172,-3.44531 23.90234,-11.75 30.66406,-23.38281 z m -13.14063,-7.64063 c -4.72265,8.125 -12.32812,13.92188 -21.41406,16.32813 -9.082029,2.40234 -18.558591,1.1289 -26.683591,-3.59375 -8.125,-4.72266 -13.921875,-12.32813 -16.328125,-21.41407 -4.964844,-18.7539 6.253906,-38.04687 25.007812,-43.01172 3.003906,-0.79687 6.023438,-1.17578 8.996094,-1.17578 15.57422,0 29.84766,10.4336 34.01953,26.17969 2.40234,9.08594 1.125,18.5625 -3.59766,26.6875 z m 0,0"
       style="fill:#000000;fill-opacity:1;fill-rule:nonzero;stroke:none"
       id="path14" />
    <path
       d="m 158.98047,107.46484 c -11.63281,-6.76562 -25.20703,-8.593746 -38.21484,-5.14843 -13.01172,3.4414 -23.902349,11.74609 -30.667974,23.38281 -6.761718,11.63281 -8.589844,25.20703 -5.144531,38.21484 3.441406,13.00781 11.746094,23.89844 23.382815,30.66406 7.79297,4.53125 16.45703,6.84766 25.23828,6.84766 4.32812,0 8.67969,-0.5625 12.97656,-1.69922 13.01172,-3.44531 23.89844,-11.75 30.66406,-23.38281 6.76563,-11.63672 8.59375,-25.20703 5.14844,-38.21875 -3.44531,-13.00781 -11.75,-23.89844 -23.38281,-30.66016 z m 5.09375,61.23828 c -4.72266,8.125 -12.32813,13.92188 -21.41406,16.32813 -9.08204,2.40625 -18.5586,1.12891 -26.6836,-3.59375 -8.125,-4.72656 -13.92578,-12.32813 -16.328122,-21.41406 -2.40625,-9.08594 -1.128907,-18.5625 3.593752,-26.6836 4.72265,-8.125 12.32812,-13.92578 21.41015,-16.33203 3,-0.79297 6.04297,-1.18359 9.0625,-1.18359 6.13282,0 12.1836,1.61719 17.625,4.78125 8.125,4.72266 13.92578,12.32812 16.32813,21.41015 2.40625,9.08594 1.1289,18.5625 -3.59375,26.6875 z m 0,0"
       style="fill:#000000;fill-opacity:1;fill-rule:nonzero;stroke:none"
       id="path15" />
    <path
       d="M 501.9375,153.30078 C 507.43359,85.652344 430.15234,5.664062 426.85937,2.289062 c -2.15234,-2.2031245 -5.42578,-2.890624 -8.28906,-1.734374 -2.85937,1.15625 -4.73437,3.929687 -4.75,7.011718 -0.0937,22.292969 -16.69922,42.824219 -49.3789,75.226563 -20.66016,20.488281 -30.39454,50.320311 -25.40235,77.851561 3.71485,20.49219 15.25391,37.05469 31.91797,46.15234 l 0.1875,2.69141 c -1.01562,0.26563 -2.04687,0.53906 -2.20703,0.58203 -22.39063,5.59766 -44.8125,6.46875 -64.84375,2.51953 -28.8125,-5.6875 -49.16797,-20.99609 -54.45313,-40.95312 -7.16796,-27.07031 13.64454,-58.94531 51.78907,-79.316408 6.14843,-3.285156 11.41406,-8.09375 15.21875,-13.90625 3.82031,-5.828124 6.13281,-12.570312 6.6914,-19.492187 C 325.22266,35.75 308.66797,15.199219 285.65234,12.144531 259.57812,8.6875 220.34375,6.722656 181.5,17.003906 c -23.75391,6.289063 -46.26953,16.160156 -66.92578,29.339844 -3.53906,2.257812 -4.57813,6.957031 -2.32031,10.496094 2.26172,3.539062 6.95703,4.574218 10.49609,2.320312 19.32812,-12.335937 40.40625,-21.574218 62.64062,-27.460937 36.4375,-9.644531 73.54688,-7.765625 98.26172,-4.488281 14.98438,1.992187 25.76563,15.382812 24.53907,30.488281 -0.35547,4.394531 -1.82813,8.679687 -4.25391,12.386719 -2.41797,3.6875 -5.76172,6.742187 -9.66797,8.832031 -21.17969,11.308593 -38.06641,26.117191 -48.82422,42.824221 -11.46875,17.80859 -15.09765,36.41015 -10.49609,53.78906 6.91015,26.08984 31.03906,45.03125 66.20312,51.97266 9.19922,1.8164 18.82422,2.71875 28.69532,2.71875 13.82812,0 28.1289,-1.78125 42.37109,-5.3086 l 3.63281,52.21094 c -0.33594,0.082 -0.66797,0.16016 -1.00781,0.25 -22.71484,6.01562 -36.30859,29.39844 -30.29688,52.11719 4.64063,17.53515 19.50782,29.89453 37.13672,31.53515 l 5.89844,84.8086 c -23.35547,17.1289 -49.42969,29.61328 -77.57031,37.10937 -61.06641,16.25 -124.67188,7.52344 -179.10547,-24.57031 -54.417969,-32.08594 -92.839844,-83.53516 -108.1875,-144.87109 -11.089844,-44.3086 -9,-90.70313 6.042969,-134.16407 14.75,-42.625 40.886719,-79.65234 75.578121,-107.078121 3.29297,-2.601563 3.85157,-7.382813 1.25,-10.675781 C 102.98438,58.292969 98.207031,57.734375 94.914062,60.339844 57.941406,89.566406 30.097656,128.99609 14.394531,174.36719 -1.613281,220.625 -3.835938,270.01562 7.972656,317.19141 c 16.34375,65.3164 57.257813,120.10546 115.210934,154.27343 38.91016,22.94532 82.21485,34.67188 126.15625,34.67188 21.51953,0 43.20313,-2.8125 64.58203,-8.50391 26.90235,-7.16797 52.03125,-18.61719 74.89063,-34.07422 l 1.89062,27.15625 c 0.83204,12.06641 13.73047,21.21485 30,21.28516 0.0625,0 0.1211,0 0.17969,0 7.17578,0 14.07422,-1.83594 19.42578,-5.17188 6.33985,-3.93359 10.10157,-9.5664 10.58985,-15.85937 l 7.6914,-98.64844 c 26.02735,-40.11328 40.01953,-86.29297 40.46485,-133.67578 0.0156,-1.06641 -0.0156,-2.19531 -0.082,-3.33594 -1.07813,-19.52734 -10.3711,-37.19922 -25.66797,-49.1914 17.26953,-13.81641 26.90625,-31.56641 28.63281,-52.81641 z M 354,157.93359 c -4.11328,-22.67578 3.98828,-47.33203 21.14844,-64.343746 28.12109,-27.886719 45.33203,-48.089844 51.40234,-68.9375 20.65234,24.078125 64.03516,80.687496 60.23828,127.417966 -1.41015,17.35547 -9.12109,31.32813 -23.54297,42.63672 L 379.9375,194.35937 C 366.23828,187.64062 357.05078,174.76953 354,157.93359 Z m 32.39062,51.66016 71.17969,0.29687 -6.00781,77.07032 -59.80859,-0.25391 z m -27.15234,116.01172 c -3.70312,-14.00781 4.17188,-28.39453 17.6875,-32.98438 l 3.67969,52.89844 C 370.38672,343.59375 362,336.03516 359.23828,325.60547 Z m 76.50391,164.1875 c -0.10157,1.30469 -1.39063,2.84375 -3.45703,4.1289 -2.94141,1.83204 -7.09375,2.875 -11.40235,2.875 -0.0391,0 -0.0781,0 -0.11328,0 -8.80078,-0.0351 -14.70312,-4.24609 -14.90234,-7.13281 l -13.0586,-187.75 57.57032,0.24219 z m 48.05468,-233.6211 c 0.0469,0.8086 0.0664,1.58204 0.0586,2.3125 -0.31641,33.875 -8.00391,67.09375 -22.44141,97.64844 l 10.19141,-130.66406 c 7.23437,8.53906 11.55469,19.19922 12.1914,30.70312 z m 0,0"
       style="fill:#000000;fill-opacity:1;fill-rule:nonzero;stroke:none"
       id="path16" />
  </g>
</svg>
